<svg width="1200" height="675" viewBox="0 0 1200 675" fill="none" xmlns="http://www.w3.org/2000/svg">
  <defs>
    <linearGradient id="bg" x1="0" y1="0" x2="1200" y2="675" gradientUnits="userSpaceOnUse">
      <stop offset="0" stop-color="#0A0F0D"/>
      <stop offset="1" stop-color="#12352E"/>
    </linearGradient>
    <radialGradient id="glow" cx="0" cy="0" r="1" gradientUnits="userSpaceOnUse" gradientTransform="translate(860 180) rotate(142) scale(360 260)">
      <stop stop-color="#86EFAC" stop-opacity="0.35"/>
      <stop offset="1" stop-color="#86EFAC" stop-opacity="0"/>
    </radialGradient>
    <linearGradient id="lane" x1="0" y1="0" x2="0" y2="1">
      <stop offset="0" stop-color="#86EFAC" stop-opacity="0.85"/>
      <stop offset="1" stop-color="#6EE7B7" stop-opacity="0.45"/>
    </linearGradient>
  </defs>

  <rect width="1200" height="675" fill="url(#bg)"/>
  <rect width="1200" height="675" fill="url(#glow)"/>

  <rect x="0" y="485" width="1200" height="190" fill="#0E1E1A"/>
  <path d="M0 492H1200" stroke="#86EFAC" stroke-opacity="0.45" stroke-width="3"/>

  <path d="M250 675L390 485H520L420 675H250Z" fill="url(#lane)" opacity="0.22"/>
  <path d="M500 675L620 485H760L680 675H500Z" fill="url(#lane)" opacity="0.3"/>
  <path d="M760 675L860 485H980L920 675H760Z" fill="url(#lane)" opacity="0.22"/>

  <g opacity="0.95">
    <rect x="710" y="398" width="90" height="72" rx="12" fill="#1A2F2A" stroke="#86EFAC" stroke-opacity="0.55"/>
    <rect x="870" y="360" width="80" height="62" rx="12" fill="#1A2F2A" stroke="#86EFAC" stroke-opacity="0.55"/>
    <rect x="1010" y="330" width="68" height="54" rx="12" fill="#1A2F2A" stroke="#86EFAC" stroke-opacity="0.55"/>
  </g>

  <g>
    <circle cx="235" cy="212" r="66" fill="#132822" stroke="#86EFAC" stroke-opacity="0.55"/>
    <text x="235" y="232" text-anchor="middle" fill="#E7FFF0" font-size="68" font-family="Segoe UI Emoji, Apple Color Emoji, Noto Color Emoji">🦒</text>
  </g>

  <g>
    <text x="320" y="170" fill="#E7FFF0" font-size="64" font-weight="800" font-family="Segoe UI, Arial, sans-serif">Lifestyle Inflation Trap</text>
    <text x="323" y="216" fill="#A6D9C3" font-size="28" font-family="Segoe UI, Arial, sans-serif">Runner • Gates • Boss Events • Visibility Index</text>
  </g>

  <g opacity="0.95">
    <rect x="319" y="262" width="180" height="56" rx="28" fill="#163128" stroke="#86EFAC"/>
    <text x="409" y="299" text-anchor="middle" fill="#86EFAC" font-size="24" font-weight="700" font-family="Segoe UI, Arial, sans-serif">PARKOUR RUN</text>
  </g>

  <g opacity="0.9">
    <text x="688" y="455" fill="#86EFAC" font-size="32" font-family="Segoe UI Emoji, Apple Color Emoji, Noto Color Emoji">📦</text>
    <text x="846" y="418" fill="#86EFAC" font-size="28" font-family="Segoe UI Emoji, Apple Color Emoji, Noto Color Emoji">⭐</text>
    <text x="992" y="386" fill="#86EFAC" font-size="24" font-family="Segoe UI Emoji, Apple Color Emoji, Noto Color Emoji">🌱</text>
  </g>
</svg>
